HIERARCHY
ROOT Hips
{
 OFFSET 0.000000 0.000000 0.000000
 CHANNELS 6 Xposition Yposition Zposition Yrotation Xrotation Zrotation
 JOINT Chest
 {
  OFFSET 0.000000 9.585900 0.002600
  CHANNELS 3 Yrotation Xrotation Zrotation
  JOINT Chest2
  {
   OFFSET 0.000000 9.601200 -0.005300
   CHANNELS 3 Yrotation Xrotation Zrotation
   JOINT Chest3
   {
    OFFSET 0.000000 9.561800 0.000000
    CHANNELS 3 Yrotation Xrotation Zrotation
    JOINT Chest4
    {
     OFFSET 0.000000 9.552100 0.000000
     CHANNELS 3 Yrotation Xrotation Zrotation
     JOINT Neck
     {
      OFFSET 0.000000 14.453000 0.000000
      CHANNELS 3 Yrotation Xrotation Zrotation
      JOINT Head
      {
       OFFSET 0.000000 8.936500 -0.011300
       CHANNELS 3 Yrotation Xrotation Zrotation
       End Site
       {
        OFFSET 0.000000 17.073600 -0.006000
       }
      }
     }
     JOINT RightCollar
     {
      OFFSET -2.921100 9.558500 0.000000
      CHANNELS 3 Yrotation Xrotation Zrotation
      JOINT RightShoulder
      {
       OFFSET -13.519700 0.000000 0.000000
       CHANNELS 3 Yrotation Xrotation Zrotation
       JOINT RightElbow
       {
        OFFSET 0.000000 -29.696600 0.000000
        CHANNELS 3 Yrotation Xrotation Zrotation
        JOINT RightWrist
        {
         OFFSET 0.000000 -24.004700 0.000000
         CHANNELS 3 Yrotation Xrotation Zrotation
         End Site
         {
          OFFSET 0.000000 -17.728500 0.000000
         }
        }
       }
      }
     }
     JOINT LeftCollar
     {
      OFFSET 2.921100 9.558500 0.000000
      CHANNELS 3 Yrotation Xrotation Zrotation
      JOINT LeftShoulder
      {
       OFFSET 13.519700 0.000000 0.000000
       CHANNELS 3 Yrotation Xrotation Zrotation
       JOINT LeftElbow
       {
        OFFSET 0.000000 -29.696600 0.000000
        CHANNELS 3 Yrotation Xrotation Zrotation
        JOINT LeftWrist
        {
         OFFSET 0.000000 -24.004700 0.000000
         CHANNELS 3 Yrotation Xrotation Zrotation
         End Site
         {
          OFFSET 0.000000 -17.728500 0.000000
         }
        }
       }
      }
     }
    }
   }
  }
 }
 JOINT RightHip
 {
  OFFSET -7.771700 -0.012900 -0.001300
  CHANNELS 3 Yrotation Xrotation Zrotation
  JOINT RightKnee
  {
   OFFSET 0.000000 -40.869800 0.001200
   CHANNELS 3 Yrotation Xrotation Zrotation
   JOINT RightAnkle
   {
    OFFSET 0.000000 -39.717900 0.002100
    CHANNELS 3 Yrotation Xrotation Zrotation
    JOINT RightToe
    {
     OFFSET 0.000000 -4.965400 11.033500
     CHANNELS 3 Yrotation Xrotation Zrotation
     End Site
     {
      OFFSET 0.000000 -1.423100 5.872300
     }
    }
   }
  }
 }
 JOINT LeftHip
 {
  OFFSET 7.771700 -0.012900 -0.001300
  CHANNELS 3 Yrotation Xrotation Zrotation
  JOINT LeftKnee
  {
   OFFSET 0.000000 -40.869800 0.001200
   CHANNELS 3 Yrotation Xrotation Zrotation
   JOINT LeftAnkle
   {
    OFFSET 0.000000 -39.717900 0.002100
    CHANNELS 3 Yrotation Xrotation Zrotation
    JOINT LeftToe
    {
     OFFSET 0.000000 -4.965400 11.033500
     CHANNELS 3 Yrotation Xrotation Zrotation
     End Site
     {
      OFFSET 0.000000 -1.423100 5.872300
     }
    }
   }
  }
 }
}
MOTION
Frames: 16
Frame Time: 0.008333
0.000000 85.388000 0.000000 0.000000 -5.767877 0.000000 0.000000 11.653817 0.000000 0.000000 -5.885947 0.000000 0.000000 -0.000000 0.000000 0.000000 -0.000000 0.000000 0.000000 12.528835 0.000000 0.000000 0.711642 0.000000 0.000000 -0.000000 0.000000 0.000000 0.000000 -90.000000 0.000000 -2.309062 0.000000 0.000000 2.309062 0.000000 0.000000 -0.000000 0.000000 0.000000 -0.000000 90.000000 0.000000 -2.309062 0.000000 0.000000 2.309062 0.000000 0.000000 8.520406 0.000000 0.000000 1.905762 0.000000 -0.000000 -4.658285 0.000000 0.000000 -0.000000 0.000000 0.000000 8.520406 0.000000 0.000000 1.905762 0.000000 -0.000000 -4.658285 0.000000 0.000000 -0.000000 0.000000
-216.186261 57.407736 -71.226872 155.579263 -11.641865 0.187456 3.956673 7.463702 1.460724 0.263461 0.431687 0.024197 0.206053 0.624034 0.043694 3.245470 7.187214 0.648828 0.813364 17.887785 -0.452508 1.646572 -2.565621 -1.101221 1.756657 6.749362 -0.702495 -8.272446 -16.099668 -12.435235 -75.124304 -75.432404 94.444002 -5.801076 0.755654 -26.538866 -4.036214 5.097348 -1.024224 20.433785 -13.401632 4.563437 67.740618 -54.347664 -104.084234 2.424761 -0.068730 6.670989 -13.536422 -60.240978 9.523338 -30.745100 71.833829 -31.493507 -2.976704 -6.320072 -2.081859 -0.577904 0.772075 -0.279826 -1.846429 -62.579793 20.636448 44.212448 64.372000 38.572121 -16.837975 -9.279724 0.209550 -0.007878 -1.368812 -0.182879
-216.161150 57.408699 -71.229013 155.504553 -11.615356 0.183305 3.942470 7.396594 1.468605 0.257339 0.427309 0.021726 0.206939 0.609879 0.045401 3.237064 7.123577 0.645754 0.906732 18.005307 -0.475258 1.824174 -2.345206 -1.171883 1.674902 6.789014 -0.707099 -8.088224 -15.699954 -12.313246 -73.521008 -75.687447 93.332243 -5.718433 1.268730 -27.479230 -3.789108 5.141443 -0.907892 20.372525 -12.670931 4.307607 67.388080 -54.452995 -103.783685 2.284700 0.574444 7.745904 -13.540440 -60.257747 9.602181 -30.782731 71.830375 -31.518831 -2.961186 -6.322386 -2.098372 -0.578427 0.765184 -0.283244 -1.876904 -62.584397 20.728174 44.288019 64.325460 38.679266 -16.918493 -9.226866 0.139739 0.034327 -1.352110 -0.142999
-216.134164 57.409699 -71.232874 155.431270 -11.582068 0.190552 3.926524 7.320479 1.465355 0.189591 0.383486 0.023429 0.268725 0.634029 0.042957 3.226228 7.055396 0.644939 0.999972 18.120958 -0.497608 2.001098 -2.128244 -1.241398 1.597765 6.833905 -0.703259 -7.893544 -15.305473 -12.207993 -71.858214 -75.967031 92.156968 -5.708360 1.697031 -28.575895 -3.538416 5.206569 -0.788146 20.294965 -11.948462 4.013374 66.978411 -54.563943 -103.410199 2.153895 1.246762 8.844736 -13.528634 -60.283472 9.660827 -30.820456 71.830409 -31.542471 -2.945520 -6.331270 -2.123467 -0.573879 0.762334 -0.277803 -1.850285 -62.607179 20.770201 44.344317 64.298551 38.769881 -16.964537 -9.159924 0.094174 0.040895 -1.351095 -0.119742
-216.107453 57.410413 -71.237780 155.391025 -11.536047 0.207670 3.920425 7.252989 1.449038 0.121652 0.338123 0.026387 0.287485 0.633705 0.042384 3.215303 6.982220 0.647299 1.091287 18.232337 -0.520251 2.174397 -1.919160 -1.310535 1.527379 6.899273 -0.694833 -7.691731 -14.930674 -12.115016 -70.116585 -76.259619 90.897189 -5.779750 2.026282 -29.813373 -3.286757 5.289553 -0.674365 20.197415 -11.238076 3.695544 66.492872 -54.688199 -102.948015 2.050027 1.916280 9.950812 -13.562477 -60.323295 9.718515 -30.855349 71.835525 -31.569931 -2.937071 -6.344290 -2.154489 -0.555340 0.757560 -0.271606 -1.821981 -62.642856 20.779380 44.369629 64.287364 38.805714 -16.951397 -9.087666 0.086128 0.008563 -1.390875 -0.130734
-216.077866 57.411359 -71.245166 155.354958 -11.497139 0.221662 3.846912 7.155073 1.434025 0.182866 0.371689 0.021122 0.241412 0.591173 0.047291 3.206424 6.905077 0.653413 1.178844 18.362886 -0.543810 2.341215 -1.748368 -1.379620 1.462907 6.990590 -0.684626 -7.481758 -14.583719 -12.030377 -68.281174 -76.541103 89.530811 -5.915607 2.263386 -31.142479 -3.039167 5.378883 -0.573273 20.081480 -10.537910 3.367058 65.922193 -54.838206 -102.384077 1.983465 2.552926 11.036873 -13.601302 -60.355908 9.773000 -30.896004 71.847552 -31.597958 -2.926807 -6.359640 -2.182234 -0.537849 0.748584 -0.273288 -1.842260 -62.646901 20.841219 44.379842 64.276291 38.791879 -16.943190 -9.067784 0.073312 -0.001420 -1.319759 -0.113119
-216.044565 57.412141 -71.252390 155.248466 -11.456671 0.231860 3.848090 7.054619 1.441885 0.180134 0.361769 0.021484 0.280917 0.609755 0.042342 3.178642 6.808311 0.666203 1.261879 18.448022 -0.567648 2.501872 -1.554926 -1.446450 1.404112 7.098686 -0.671936 -7.261279 -14.260242 -11.950622 -66.350577 -76.795962 88.047419 -6.092485 2.433050 -32.490822 -2.796830 5.467095 -0.489858 19.949050 -9.852949 3.037131 65.272687 -55.023175 -101.715042 1.946347 3.135363 12.081723 -13.669974 -60.383739 9.910587 -30.859766 71.870662 -31.574171 -2.892802 -6.370887 -2.204453 -0.550657 0.740468 -0.286539 -1.803438 -62.662494 20.922308 44.390281 64.279974 38.815006 -16.952499 -9.056247 0.034177 0.035495 -1.258714 -0.083714
-216.003440 57.414630 -71.267631 155.102883 -11.474411 0.227065 3.916275 7.023113 1.480586 0.158220 0.339526 0.024862 0.358576 0.663646 0.028827 3.113329 6.676999 0.687901 1.343058 18.522168 -0.589525 2.653519 -1.373550 -1.512562 1.351193 7.210978 -0.652511 -7.028136 -13.952181 -11.871998 -64.327207 -77.016332 86.446025 -6.286085 2.567190 -33.799689 -2.559588 5.555336 -0.420083 19.807436 -9.192313 2.707245 64.565378 -55.257025 -100.954756 1.935856 3.652563 13.064756 -13.607009 -60.355815 9.984089 -30.902228 71.884349 -31.576753 -2.887174 -6.366966 -2.237201 -0.539413 0.719893 -0.281433 -1.758637 -62.624716 21.039865 44.483528 64.292100 38.933808 -16.952657 -9.075393 -0.005373 0.024158 -1.256897 -0.084378
-215.970457 57.415366 -71.278946 155.003519 -11.447056 0.244957 3.936368 6.950122 1.483925 0.156504 0.332272 0.025447 0.293329 0.597800 0.041451 3.173443 6.655032 0.692611 1.419308 18.601980 -0.611470 2.798819 -1.222811 -1.575090 1.303819 7.314570 -0.621968 -6.782813 -13.648137 -11.790330 -62.238075 -77.194412 84.753413 -6.474908 2.699452 -35.037465 -2.327930 5.649342 -0.353542 19.664347 -8.560617 2.375181 63.842744 -55.556720 -100.140227 1.940646 4.113261 13.964224 -13.551326 -60.380786 10.014262 -30.929198 71.898901 -31.562589 -2.917515 -6.366291 -2.249751 -0.498096 0.704894 -0.295758 -1.695488 -62.631285 21.097358 44.507401 64.316891 38.951929 -16.939119 -9.080208 -0.002015 -0.005151 -1.253598 -0.098679
-215.936429 57.416052 -71.291089 154.943906 -11.427286 0.247620 3.957347 6.907529 1.493135 0.118266 0.303231 0.031892 0.271506 0.569221 0.046103 3.197646 6.599916 0.705074 1.491193 18.672385 -0.631718 2.935523 -1.089683 -1.633244 1.259466 7.400167 -0.580335 -6.532761 -13.335261 -11.700035 -60.142568 -77.330945 83.031228 -6.642634 2.855073 -36.173188 -2.103837 5.755828 -0.286627 19.522299 -7.962240 2.045779 63.142776 -55.921143 -99.309784 1.923700 4.536580 14.774632 -13.564355 -60.395278 10.058130 -30.946429 71.929431 -31.505537 -2.988529 -6.379015 -2.342272 -0.405784 0.688135 -0.261426 -1.681555 -62.632612 21.172806 44.512051 64.345177 38.944682 -16.930050 -9.073616 0.021307 -0.053293 -1.167554 -0.102519
-215.907121 57.415701 -71.300774 154.981988 -11.384888 0.245683 3.824185 6.813775 1.488281 0.136491 0.308607 0.029739 0.307748 0.586998 0.039944 3.171518 6.503034 0.727988 1.549513 18.767787 -0.659008 3.072028 -1.009097 -1.685429 1.214835 7.472455 -0.531253 -6.280671 -13.012389 -11.594816 -58.080180 -77.432827 81.309979 -6.779215 3.036344 -37.160635 -1.890591 5.876293 -0.221410 19.384579 -7.398859 1.727162 62.483945 -56.344403 -98.484324 1.864341 4.944933 15.496406 -13.656879 -60.437897 10.084320 -30.952044 71.959561 -31.460698 -3.063572 -6.330526 -2.408432 -0.317520 0.617055 -0.228382 -1.730345 -62.656013 21.217004 44.473169 64.366779 38.886216 -16.932739 -9.126498 0.025720 -0.042841 -1.072510 -0.092513
-215.877294 57.415550 -71.311669 154.842588 -11.354794 0.273550 3.867073 6.736690 1.491028 0.153916 0.314035 0.027374 0.288671 0.562666 0.044716 3.204838 6.455410 0.743191 1.603252 18.852253 -0.687780 3.201970 -0.945495 -1.735772 1.171041 7.538121 -0.479243 -6.030502 -12.681817 -11.467105 -56.063878 -77.510972 79.597137 -6.884739 3.226821 -37.965467 -1.690706 6.005664 -0.162166 19.254735 -6.865098 1.428006 61.870186 -56.838943 -97.667542 1.771424 5.355933 16.121324 -13.595087 -60.466525 10.118457 -30.912715 71.989370 -31.384326 -3.046582 -6.340784 -2.436392 -0.315972 0.611172 -0.248264 -1.609334 -62.665868 21.275158 44.471338 64.412881 38.862908 -16.912322 -9.147288 0.043451 -0.063227 -1.043702 -0.095814
-215.843180 57.417528 -71.331896 154.581363 -11.393945 0.319718 4.086221 6.758709 1.501560 0.153785 0.311515 0.027737 0.234098 0.520773 0.057450 3.242532 6.413208 0.758215 1.659323 18.892892 -0.707820 3.317147 -0.866824 -1.788801 1.129952 7.594370 -0.425352 -5.796479 -12.337537 -11.309905 -54.108765 -77.575791 77.922970 -6.955274 3.401281 -38.582045 -1.506190 6.136189 -0.113860 19.130136 -6.354021 1.160216 61.291967 -57.412803 -96.848382 1.654347 5.776826 16.639407 -13.365511 -60.425319 10.121556 -30.912586 72.007238 -31.351513 -3.002034 -6.398248 -2.438517 -0.347289 0.657655 -0.281616 -1.370360 -62.605990 21.343099 44.550538 64.484198 38.915378 -16.872694 -9.157751 0.080022 -0.133808 -1.092491 -0.123371
-215.818828 57.417554 -71.344445 154.459644 -11.375518 0.364207 4.112795 6.700163 1.486970 0.206215 0.334905 0.017430 0.200388 0.496206 0.066400 3.264079 6.364123 0.776692 1.729651 18.872574 -0.712847 3.406697 -0.756310 -1.843658 1.091164 7.636849 -0.369599 -5.589504 -11.972870 -11.118316 -52.246768 -77.640096 76.329696 -6.988287 3.540744 -39.023987 -1.337694 6.259831 -0.078219 19.007151 -5.856927 0.932479 60.733199 -58.065809 -96.008326 1.514055 6.196606 17.034983 -13.254916 -60.446649 10.105432 -30.880434 72.021921 -31.314920 -2.970491 -6.398111 -2.416376 -0.386256 0.672368 -0.282973 -1.213336 -62.604797 21.355474 44.537062 64.536435 38.872052 -16.885706 -9.180931 0.102524 -0.153523 -1.059194 -0.120222
-215.789937 57.418334 -71.356594 154.352470 -11.378702 0.371765 4.129293 6.665699 1.506282 0.172047 0.310418 0.026180 0.253082 0.520651 0.055883 3.287708 6.320000 0.795416 1.786217 18.876021 -0.724459 3.500491 -0.699896 -1.890600 1.055489 7.665825 -0.314966 -5.414414 -11.590524 -10.889257 -50.517732 -77.714172 74.856237 -6.990301 3.639981 -39.317980 -1.183840 6.372647 -0.050739 18.887271 -5.365178 0.743964 60.179402 -58.808612 -95.138381 1.359225 6.598688 17.299560 -13.193989 -60.438042 10.130237 -30.889787 72.038814 -31.275170 -2.982844 -6.403153 -2.446845 -0.358948 0.673240 -0.269631 -1.129306 -62.584699 21.437849 44.521207 64.591054 38.822637 -16.863396 -9.202723 0.131296 -0.190717 -1.027315 -0.123619
-215.765550 57.419192 -71.367431 154.242616 -11.376926 0.390956 4.165449 6.641261 1.509211 0.155167 0.299338 0.030268 0.271926 0.524198 0.053552 3.332868 6.313812 0.800620 1.819905 18.852369 -0.724469 3.592376 -0.681130 -1.928258 1.001994 7.651073 -0.250219 -5.278258 -11.201619 -10.622632 -48.918245 -77.799574 73.504096 -6.970107 3.694855 -39.492119 -1.063453 6.441175 -0.010291 18.772915 -4.877597 0.587465 59.629472 -59.639880 -94.256271 1.194282 6.988525 17.455548 -13.111595 -60.434774 10.134874 -30.890435 72.047596 -31.229121 -2.995694 -6.412620 -2.482620 -0.326439 0.674780 -0.267591 -1.013891 -62.571179 21.492352 44.502144 64.642848 38.768605 -16.861645 -9.206640 0.151423 -0.205120 -1.020105 -0.117372
